<?xml version="1.0" encoding="UTF-8"?>
<!DOCTYPE svg PUBLIC "-//W3C//DTD SVG 1.1//EN" "http://www.w3.org/Graphics/SVG/1.1/DTD/svg11.dtd">
<!-- Creator: CorelDRAW 2019 -->
<svg xmlns="http://www.w3.org/2000/svg" xml:space="preserve" width="1920px" height="1080px" version="1.1" style="shape-rendering:geometricPrecision; text-rendering:geometricPrecision; image-rendering:optimizeQuality; fill-rule:evenodd; clip-rule:evenodd"
viewBox="0 0 1920 1080"
 xmlns:xlink="http://www.w3.org/1999/xlink"
 xmlns:xodm="http://www.corel.com/coreldraw/odm/2003">
 <defs>
  <style type="text/css">
   <![CDATA[
    .str0 {stroke:#2B305E;stroke-width:2.08;stroke-miterlimit:2.61313}
    .fil16 {fill:#FEFEFE}
    .fil15 {fill:#D9DADA}
    .fil28 {fill:#2B305E}
    .fil1 {fill:#3D325C}
    .fil7 {fill:#6F6EEE}
    .fil27 {fill:#9AB6D6}
    .fil23 {fill:#CAD8E6}
    .fil24 {fill:#CAD8E6}
    .fil12 {fill:#EA817E}
    .fil26 {fill:#EBF1F7}
    .fil2 {fill:#EEB0A1}
    .fil14 {fill:#EEB0A1}
    .fil4 {fill:#F04089}
    .fil0 {fill:white}
    .fil17 {fill:#FEFEFE;fill-rule:nonzero}
    .fil18 {fill:#EBECEC;fill-rule:nonzero}
    .fil21 {fill:#235F80;fill-rule:nonzero}
    .fil29 {fill:#268C9E;fill-rule:nonzero}
    .fil11 {fill:#5F5FC9;fill-rule:nonzero}
    .fil30 {fill:#9AB6D6;fill-rule:nonzero}
    .fil13 {fill:#BA6966;fill-rule:nonzero}
    .fil5 {fill:#CF3C79;fill-rule:nonzero}
    .fil3 {fill:#D89988;fill-rule:nonzero}
    .fil31 {fill:#2B2A29;fill-opacity:0.101961}
    .fil8 {fill:#2B2A29;fill-opacity:0.101961}
    .fil10 {fill:#2B2A29;fill-opacity:0.200000}
    .fil9 {fill:#2B2A29;fill-opacity:0.200000}
    .fil25 {fill:#4D56A4;fill-opacity:0.200000}
    .fil22 {fill:#9AB6D6;fill-opacity:0.200000}
    .fil19 {fill:#CF3C79;fill-rule:nonzero}
    .fil20 {fill:url(#id0)}
    .fil6 {fill:url(#id1)}
    .fil32 {fill:url(#id2);fill-opacity:0.200000}
   ]]>
  </style>
  <linearGradient id="id0" gradientUnits="userSpaceOnUse" x1="208.4" y1="1125.91" x2="1857.53" y2="595.63">
   <stop offset="0" style="stop-opacity:1; stop-color:#514A9D"/>
   <stop offset="1" style="stop-opacity:1; stop-color:#27BDD8"/>
  </linearGradient>
  <linearGradient id="id1" gradientUnits="userSpaceOnUse" xlink:href="#id0" x1="275.09" y1="698.21" x2="714.58" y2="652.94">
  </linearGradient>
  <linearGradient id="id2" gradientUnits="userSpaceOnUse" x1="1572.85" y1="860.71" x2="1794.13" y2="639.91">
   <stop offset="0" style="stop-opacity:1; stop-color:#27BDD8"/>
   <stop offset="1" style="stop-opacity:1; stop-color:#1C1569"/>
  </linearGradient>
 </defs>
 <g id="Layer_x0020_1">
  <metadata id="CorelCorpID_0Corel-Layer"/>
  <rect class="fil0" width="1920" height="1080"/>
  <path class="fil1 str0" d="M176.51 797.69c-24.14,-26.97 -36.22,-40.46 -36.22,-40.46 0,0 -5.22,-8.41 -15.66,-25.23 -1.19,-1.92 -1.46,-4.04 -0.78,-6.19 0.69,-2.15 2.13,-3.73 4.21,-4.6 16.03,-6.75 27.06,-11.4 33.1,-13.94 3.24,-1.36 6.88,-0.32 8.92,2.54 33.28,46.78 49.92,70.17 49.92,70.17 1.16,1.14 1.57,2.85 1.05,4.4 -0.51,1.55 -1.86,2.67 -3.48,2.89 -27.37,6.95 -41.06,10.42 -41.06,10.42z"/>
  <path class="fil2" d="M133.52 746.31c5.56,6.12 8.35,9.18 8.35,9.18 15.85,-14.39 30.46,-18.09 43.83,-11.11 9.3,5.66 10.11,16.08 2.42,31.25 -7.33,7.7 -11.2,15.05 -11.61,22.06 8.15,-2.07 12.23,-3.11 12.23,-3.11 1.32,6.81 1.99,10.22 1.99,10.22 18.94,10.47 28.41,15.71 28.41,15.71 4.21,24.81 -4.67,36.75 -26.63,35.81 -55.5,-41.85 -75.16,-78.52 -58.99,-110.01z"/>
  <path class="fil3" d="M134.66 745.27l7.32 8.05c7.71,-6.77 15.17,-11.08 22.36,-12.9 7.68,-1.95 15.04,-1.09 22.07,2.59l0.08 0.05c5.11,3.11 7.89,7.53 8.33,13.27 0.43,5.49 -1.35,12.16 -5.32,20l-0.26 0.37c-3.56,3.74 -6.28,7.39 -8.15,10.94 -1.44,2.73 -2.37,5.4 -2.8,8l11.65 -2.96 2.17 11.12 28.42 15.71 0.13 0.74c0.83,4.9 1.16,9.33 0.99,13.27 -0.29,6.8 -2.07,12.21 -5.35,16.2 -3.29,4.02 -8.05,6.57 -14.26,7.63 -2.88,0.49 -6.08,0.66 -9.59,0.51l-0.86 -0.31c-27.93,-21.06 -46.87,-40.86 -56.81,-59.39 -10.09,-18.81 -10.97,-36.33 -2.63,-52.55l1.01 -1.98 1.5 1.64zm6.06 11.26l-6.81 -7.49c-6.76,14.7 -5.57,30.59 3.59,47.66 9.68,18.05 28.2,37.42 55.55,58.09 3.11,0.11 5.94,-0.06 8.48,-0.49 5.45,-0.93 9.58,-3.11 12.39,-6.54 2.84,-3.46 4.39,-8.25 4.65,-14.37 0.15,-3.53 -0.13,-7.5 -0.84,-11.89l-28.38 -15.69 -1.82 -9.32 -12.68 3.21 0.12 -2.1c0.22,-3.73 1.35,-7.53 3.39,-11.4 1.97,-3.74 4.8,-7.57 8.49,-11.46 3.64,-7.24 5.27,-13.3 4.89,-18.18 -0.36,-4.66 -2.63,-8.27 -6.79,-10.83 -6.32,-3.29 -12.94,-4.07 -19.86,-2.31 -7.06,1.79 -14.46,6.2 -22.19,13.22l-1.14 1.03 -1.04 -1.14z"/>
  <path class="fil4" d="M299.86 850.3c-12.42,0.33 -38.98,-10.56 -79.7,-32.64 -5.38,16.03 -16.7,30.61 -33.96,43.75 33.01,26.42 64.77,46.79 95.29,61.12 -20.32,31.49 -30.49,47.23 -30.49,47.23 19.97,-2.97 36.6,-6.31 49.9,-10.01 -0.7,-72.97 -1.04,-109.45 -1.04,-109.45z"/>
  <path class="fil5" d="M298.33 851.83c-6.43,-0.25 -15.86,-2.93 -28.29,-8.02 -13.01,-5.32 -29.35,-13.31 -49.02,-23.93 -2.75,7.56 -6.81,14.79 -12.16,21.69 -5.39,6.94 -12.11,13.56 -20.16,19.86 15.95,12.68 31.59,23.94 46.91,33.77 15.84,10.16 31.35,18.81 46.54,25.94l1.6 0.75 -29.59 45.83c8.63,-1.33 16.63,-2.73 23.99,-4.21 7.83,-1.57 14.9,-3.21 21.19,-4.93l-1.01 -106.75zm-27.13 -10.87c13.08,5.35 22.62,7.95 28.62,7.8l1.56 -0.05c0.38,37.41 0.74,74.81 1.07,112.22l-1.14 0.32c-6.72,1.86 -14.24,3.63 -22.56,5.3 -8.32,1.67 -17.5,3.25 -27.53,4.74l-3.37 0.5 31.39 -48.61c-14.82,-7.05 -29.92,-15.51 -45.29,-25.37 -15.94,-10.23 -32.18,-21.96 -48.71,-35.19l-1.54 -1.23 1.57 -1.2c8.51,-6.48 15.56,-13.32 21.15,-20.52 5.55,-7.16 9.65,-14.66 12.28,-22.5l0.58 -1.75 1.61 0.87c20.33,11.03 37.1,19.26 50.31,24.67z"/>
  <path class="fil6" d="M490.68 842.62c-4.79,-0.11 -9.59,-0.34 -14.39,-0.69 -77.36,-5.6 -149.31,-41.81 -200,-100.64 -14.9,-10.72 -20.13,-30.52 -12.47,-47.23 17.62,-14.3 20.16,-29.45 7.62,-45.46 -32.42,-27.58 -37.5,-56.41 -15.24,-86.5 18.9,-20.91 29.29,-44.75 31.18,-71.54 -15.32,-16.27 -16.78,-41.21 -3.47,-59.16 13.31,-17.96 37.56,-23.76 57.53,-13.76 38.15,-24.03 68.88,-20.79 92.17,9.72 9.81,15.58 21.14,27.61 33.95,36.12 23.81,4.9 39.06,23.88 45.75,56.95 90.79,222.27 403.33,162.42 497.95,139.44 0,0 -161.47,95.25 -479.88,305.86 1.05,7.09 -12.52,-33.95 -40.7,-123.11z"/>
  <path class="fil7" d="M437.46 624.28c25.44,224.96 38.15,337.43 38.15,337.43 -65.6,32.13 -126.48,29.83 -182.65,-6.89 -2.09,-85.9 -3.13,-128.84 -3.13,-128.84 -13.86,-27.32 -20.79,-40.98 -20.79,-40.98 -7.76,-14.56 -5.34,-29.13 7.25,-43.71 8.12,-15.56 15.17,-31.32 21.16,-47.27 7.22,-21.91 22.17,-39.04 44.87,-51.4 63.43,-12.23 95.14,-18.34 95.14,-18.34z"/>
  <path class="fil8" d="M536.89 900.72c-63.84,-7.34 -54.02,-216.31 -21.99,-235.1 103.7,50.55 186.15,77.08 517.43,-16.3 -133.26,111.32 -298.41,195.12 -495.44,251.4z"/>
  <path class="fil9" d="M410.19 836.77c0,0 0.77,-5.32 -1.89,-13.9 -32.9,16.38 -69.17,20.1 -108.79,11.15 8.08,62.44 84.76,21.7 110.68,2.75z"/>
  <path class="fil10" d="M495.96 917.15c211.55,36.69 423.75,-62.66 515.3,-257.28 -159.06,99.54 -276.04,161.1 -501.16,185.99 -9.91,53.05 -14.63,76.81 -14.14,71.29z"/>
  <path class="fil11" d="M439 624.11l38.27 338.52 -0.98 0.48c-33.03,16.17 -64.9,23.68 -95.6,22.52 -30.72,-1.16 -60.25,-11 -88.58,-29.52l-0.68 -0.44 -3.13 -129.29 -20.64 -40.68c-4.02,-7.58 -5.41,-15.18 -4.15,-22.79 1.25,-7.53 5.09,-15.03 11.5,-22.49 4.01,-7.69 7.76,-15.44 11.25,-23.23 3.5,-7.84 6.75,-15.72 9.72,-23.66 3.67,-11.14 9.32,-21.08 16.94,-29.81 7.59,-8.7 17.15,-16.19 28.66,-22.46l0.45 -0.16 96.78 -18.65 0.19 1.66zm34.96 336.69l-37.84 -334.68 -93.28 17.97c-11.09,6.07 -20.29,13.29 -27.6,21.67 -7.34,8.4 -12.78,17.99 -16.32,28.74l-0.03 0.06c-3,8.01 -6.28,15.97 -9.82,23.88 -3.53,7.9 -7.34,15.76 -11.41,23.56l-0.2 0.3c-6.11,7.07 -9.74,14.11 -10.9,21.11 -1.15,6.94 0.13,13.9 3.84,20.87l20.81 41 0.16 0.66 3.11 128.02c27.64,17.92 56.41,27.45 86.32,28.58 29.88,1.13 60.94,-6.12 93.16,-21.74z"/>
  <path class="fil4" d="M403.45 707.58c5.45,-45.38 16.79,-73.14 34.01,-83.3 26.86,9.56 80.51,-0.96 79.64,51.71 -7.85,50.88 -11.78,76.33 -11.78,76.33 -13.62,115.88 29.34,169.04 128.9,159.45 -4.41,24.74 -27.05,35.16 -67.91,31.26 -36.07,4.91 -57.79,18.8 -65.14,41.67 -50.6,-39.74 -81.56,-93.69 -92.87,-161.83 -44.63,33.48 -77.9,41.82 -99.79,25.01 -23.68,-12.47 10.21,-150.07 17.33,-166.69 16.66,6.81 40.23,9.24 70.69,7.3 -0.47,26.39 -0.7,39.58 -0.7,39.58 5.59,-7.95 8.13,-14.78 7.62,-20.49z"/>
  <path class="fil9" d="M471.27 538.78c11.01,11.53 12.62,29.16 3.87,42.51 -8.74,13.34 -25.52,18.87 -40.46,13.32 -14.93,-5.54 -24.08,-20.69 -22.04,-36.52 2.04,-15.83 14.71,-28.16 30.56,-29.73 15.76,-21.83 22.93,-40.76 17.07,-67.06 5.05,5.02 8.87,3.74 14.52,6.48 4.6,24.33 3.13,47.14 -3.52,71z"/>
  <path class="fil12" d="M399.3 654.81c18.25,-19.68 27.38,-29.52 27.38,-29.52 -13.93,-12.81 -29.01,-24.31 -45.04,-34.35 -8.06,-6.58 -19.2,-7.89 -28.56,-3.35 -9.36,4.53 -15.25,14.09 -15.1,24.51 3.77,11.77 5.12,24.19 3.98,36.5 17.95,8.21 38.06,10.38 57.34,6.21z"/>
  <path class="fil13" d="M398.51 653.4l25.98 -28.01c-6.58,-6 -13.42,-11.7 -20.48,-17.09 -7.46,-5.69 -15.2,-11.05 -23.19,-16.05l-0.16 -0.11c-3.79,-3.1 -8.32,-4.96 -12.99,-5.51 -4.68,-0.55 -9.51,0.21 -13.92,2.35 -4.41,2.13 -8,5.46 -10.48,9.47 -2.43,3.95 -3.78,8.58 -3.75,13.41 1.87,5.91 3.15,11.99 3.82,18.12 0.64,5.84 0.72,11.76 0.25,17.66 8.52,3.77 17.54,6.18 26.7,7.17 9.36,1.01 18.89,0.56 28.22,-1.41zm29.3 -27.05l-27.38 29.51 -0.8 0.47c-9.8,2.11 -19.82,2.62 -29.67,1.56 -9.83,-1.07 -19.51,-3.71 -28.64,-7.88l-0.99 -0.46 0.1 -1.09c0.56,-6.04 0.5,-12.13 -0.16,-18.15 -0.65,-6.01 -1.91,-11.96 -3.76,-17.73l-0.07 -0.46c-0.08,-5.5 1.44,-10.79 4.21,-15.29 2.78,-4.51 6.81,-8.24 11.76,-10.64 4.95,-2.4 10.37,-3.25 15.61,-2.64 5.21,0.61 10.25,2.68 14.5,6.11 8.02,5.03 15.82,10.43 23.37,16.19 7.55,5.76 14.84,11.87 21.83,18.31l1.14 1.05 -1.05 1.14z"/>
  <path class="fil14" d="M328.97 467.31c-9.7,19.15 -21.37,27.95 -35,26.39 -14.46,52.53 -14.46,89.34 0,110.43 7.12,10.19 23.52,11.81 49.2,4.87 25.64,-12.04 38.47,-18.06 38.47,-18.06 -39.43,-38.69 -44.4,-81.87 -14.9,-129.53 -12.38,-9.66 -24.97,-7.69 -37.77,5.9z"/>
  <path class="fil3" d="M330.24 468.21c-4.93,9.69 -10.39,16.79 -16.37,21.3 -5.78,4.36 -12.04,6.31 -18.76,5.85 -6.96,25.58 -10.44,47.36 -10.44,65.34 0,18.09 3.52,32.27 10.56,42.55 3.29,4.7 8.8,7.44 16.53,8.2 7.98,0.79 18.29,-0.52 30.9,-3.92l36.33 -17.05c-19,-19.14 -29.73,-39.4 -32.18,-60.77 -2.49,-21.57 3.47,-44.21 17.88,-67.91 -5.48,-3.95 -10.96,-5.49 -16.45,-4.63 -5.89,0.92 -11.89,4.6 -18,11.04zm-18.22 18.83c5.64,-4.25 10.83,-11.06 15.57,-20.42l0.25 -0.37c6.64,-7.05 13.29,-11.09 19.94,-12.13 6.73,-1.06 13.37,0.97 19.9,6.07l1.09 0.85 -0.72 1.18c-14.56,23.52 -20.62,45.91 -18.18,67.14 2.44,21.23 13.39,41.39 32.85,60.48l1.58 1.55 -40.48 19.01 -0.25 0.09c-13.01,3.52 -23.72,4.87 -32.11,4.04 -8.67,-0.86 -14.92,-4.03 -18.75,-9.51 -7.42,-10.83 -11.14,-25.6 -11.14,-44.32 0,-18.53 3.64,-41 10.91,-67.41l0.35 -1.27 1.32 0.15c6.41,0.73 12.37,-0.98 17.87,-5.13z"/>
  <path class="fil15" d="M436.39 526.33c-2.93,38.03 -12.66,58.1 -29.19,60.21 -12.57,-9.99 -16.53,-27.39 -9.52,-41.85 7.01,-14.46 23.11,-22.09 38.71,-18.36z"/>
  <path class="fil16" d="M464.46 536.74c11.01,11.54 12.61,29.17 3.87,42.51 -8.74,13.35 -25.52,18.87 -40.46,13.33 -14.94,-5.54 -24.08,-20.69 -22.04,-36.52 2.03,-15.84 14.71,-28.17 30.56,-29.73 15.75,-21.84 21.42,-49.39 15.57,-75.68 5.04,5.01 10.24,9.29 15.6,12.83 4.61,24.33 3.55,49.41 -3.1,73.26z"/>
  <path class="fil14" d="M346.63 686.76c8.57,-36.96 20.24,-62.54 35,-76.75 19.47,-12.39 33.44,-30.45 41.93,-54.17 12.77,-16.74 22.01,-14.54 27.72,6.6 3.16,43.38 -11.11,70.87 -42.79,82.46 -8.03,8.99 -12.02,23.52 -11.96,43.59 -14.12,2.36 -30.75,1.78 -49.9,-1.73z"/>
  <path class="fil3" d="M345.13 686.41c4.31,-18.57 9.4,-34.31 15.28,-47.2 5.92,-12.97 12.64,-23.08 20.15,-30.31l0.24 -0.19c9.59,-6.11 17.82,-13.6 24.69,-22.48 6.89,-8.9 12.43,-19.21 16.62,-30.91l0.22 -0.42c6.79,-8.9 12.83,-12.72 18.09,-11.47 5.22,1.24 9.34,7.44 12.35,18.61l0.05 0.29c1.6,21.98 -1.23,39.98 -8.5,53.98 -7.26,13.99 -18.91,23.96 -34.93,29.91 -3.73,4.27 -6.54,9.85 -8.43,16.72 -1.95,7.13 -2.92,15.65 -2.89,25.55l-0.22 1.34 -1.07 0.18c-16.42,1.3 -34.03,0.11 -50.42,-1.73l-1.6 -0.3 0.37 -1.57zm18.08 -45.91c-5.62,12.32 -10.52,27.33 -14.7,45.02 15.1,2.67 31.25,3.98 46.48,1.65 0.06,-9.62 1.06,-17.96 3,-25.04 2.06,-7.49 5.18,-13.58 9.35,-18.26l0.62 -0.42c15.46,-5.65 26.67,-15.18 33.62,-28.57 6.98,-13.46 9.7,-30.85 8.17,-52.19 -2.69,-9.88 -6.04,-15.29 -10.04,-16.25 -3.94,-0.93 -8.87,2.45 -14.79,10.16 -4.29,11.91 -9.95,22.42 -16.99,31.52 -7.07,9.14 -15.52,16.84 -25.34,23.12 -7.2,6.96 -13.66,16.71 -19.38,29.26z"/>
  <path class="fil17" d="M308.23 614.2c1.77,10.58 11.16,19.16 16.81,28.23 11.02,-12.8 22.61,-24.48 34.75,-35.05 12.66,-11.01 25.92,-20.82 39.79,-29.4l1.62 2.63c-13.72,8.5 -26.86,18.2 -39.39,29.11 -12.51,10.88 -24.43,22.98 -35.75,36.27 -16.83,23.21 -17.68,20.87 -23.79,33.78 3.29,-6.31 7.43,-16.98 20.71,-34.8 -6.33,-10.48 -16.05,-18.98 -18.16,-31.61l3.41 0.84z"/>
  <path class="fil5" d="M401.92 707.4c2.74,-22.81 6.98,-41.23 12.7,-55.26 1.69,-4.15 3.09,-7.23 5.05,-10.62 1.88,-1.08 4.45,-2.64 5.88,-3.67 -12.73,18.48 -17.96,48.29 -20.55,69.79 0.58,7.51 -3.73,15.37 -7.91,21.32l-2.8 -0.91 0.67 -37.92c-21.66,1.28 -47.82,0.94 -68.3,-6.95l-1.43 3.35c-12.68,49.81 -20.29,88.15 -22.82,115.01 -2.48,26.28 -0.2,41.28 6.82,44.97l0.22 0.14c46.86,35.67 154.18,-66.7 177.73,-97.73 -18.34,34.98 -43.71,64.2 -74.9,86.82 12.27,58.57 40.47,108.32 88.14,146.4 10.05,-27.32 39.31,-37.05 65.68,-40.64l0.35 -0.01c24.25,2.31 59.11,1.52 65.84,-27.99 -112.37,9.91 -140.18,-61.97 -128.5,-161.36l11.78 -76.28c0.57,-37.96 -28.58,-41.87 -54.26,-45.32 -8.47,-1.14 -16.57,-2.23 -23.25,-4.42 1.01,-1.39 1.24,-1.71 1.93,-2.65 7.05,2.14 14.43,3.03 21.71,4.01 26.98,3.62 57.62,7.74 56.94,48.53l-11.79 76.49c-11.61,98.89 15.83,168.45 127.22,157.74l2.03 -0.2 -0.36 2.01c-5.92,33.18 -42.37,35.08 -69.4,32.53 -25.89,3.55 -54.87,13.11 -63.71,40.59l-0.68 2.11 -1.73 -1.37c-52.05,-40.88 -81.74,-95.43 -93.01,-160.3 -25.06,18.51 -69.44,46.56 -99.54,23.56 -8.14,-4.43 -10.91,-20.41 -8.33,-47.92 2.55,-27.07 10.2,-65.6 22.92,-115.58 0.74,-2.09 1.87,-4.39 2.76,-6.48 22.6,9.23 49.07,9.2 73.08,7.65l-0.64 35.86c2.56,-4.38 4.92,-9.83 4.46,-14.98l0 -0.32z"/>
  <path class="fil18" d="M210.5 790.66c16.28,41.71 33.33,60.21 52.43,58.78 6.96,-1.75 11.8,-5.95 14.51,-12.58 2.81,-6.9 3.42,-16.24 1.76,-28.45l3.89 7.73c1.28,12.85 0.17,14.47 -2.8,21.89 -3.13,7.65 -8.72,12.47 -16.78,14.45l-0.25 0.04c-20.66,1.62 -38.99,-17.86 -55.85,-61.06l3.09 -0.8z"/>
  <path class="fil19" d="M277.45 846.69c4.33,1.54 6.1,2.08 6.1,2.08 1.29,49.12 0.2,73.12 0.2,73.12 -6.59,-3.18 -9.88,-4.77 -9.88,-4.77 0.96,-47.49 3.58,-70.43 3.58,-70.43z"/>
  <path class="fil20" d="M1920 1080c-0.3,-211.82 0,-245.05 0,-456.87 -542.83,-314.1 -840.02,59.8 -1325.11,231.62 -189.86,60.22 -399.29,66.64 -594.22,18.19 -0.45,138.04 -0.67,207.06 -0.67,207.06 1280,0 1920,0 1920,0z"/>
  <path class="fil21" d="M931.52 566.36c-0.27,-0.37 -0.68,-0.58 -1.13,-0.63l-48.9 -3.64c-0.79,-0.06 -1.5,0.48 -1.66,1.25l-11.25 54.84c-2.12,-3.96 -6.12,-7.08 -11.15,-8.11 -8.47,-1.75 -16.64,3.05 -18.21,10.69 -1.57,7.64 4.05,15.28 12.52,17.03 8.47,1.75 16.65,-3.05 18.21,-10.69 0.08,-0.36 0.12,-0.72 0.16,-1.07 0.04,-0.1 0.1,-0.18 0.12,-0.28l9.17 -44.67 45.74 3.4 -5.77 28.12c-2.11,-3.96 -6.12,-7.08 -11.14,-8.11 -8.47,-1.75 -16.64,3.05 -18.21,10.69 -1.57,7.64 4.05,15.29 12.52,17.03 8.39,1.73 16.48,-2.97 18.15,-10.49 0.01,-0.02 0.02,-0.03 0.03,-0.06l11.09 -54.04c0.09,-0.44 -0.02,-0.9 -0.29,-1.26z"/>
  <path class="fil21" d="M194.71 462.55c-0.27,-0.37 -0.67,-0.58 -1.13,-0.63l-48.9 -3.64c-0.78,-0.06 -1.5,0.48 -1.66,1.25l-11.25 54.84c-2.11,-3.95 -6.12,-7.08 -11.14,-8.11 -8.47,-1.75 -16.65,3.05 -18.22,10.69 -1.56,7.64 4.06,15.29 12.53,17.03 8.47,1.75 16.64,-3.05 18.21,-10.69 0.07,-0.36 0.11,-0.72 0.15,-1.07 0.05,-0.09 0.1,-0.18 0.12,-0.28l9.17 -44.67 45.74 3.41 -5.77 28.11c-2.11,-3.95 -6.11,-7.08 -11.14,-8.11 -8.47,-1.75 -16.64,3.05 -18.21,10.69 -1.57,7.64 4.05,15.29 12.52,17.03 8.4,1.73 16.48,-2.97 18.15,-10.49 0.01,-0.02 0.03,-0.03 0.03,-0.06l11.09 -54.04c0.09,-0.44 -0.02,-0.9 -0.29,-1.26z"/>
  <path class="fil22" d="M459.31 0c-47.78,168.09 -201.7,291.14 -384.2,291.14 -25.67,0 -50.78,-2.47 -75.11,-7.13l0 -284.01 459.31 0z"/>
  <path class="fil23" d="M308.86 0c-2.07,24.75 -22.71,44.2 -47.86,44.2 -25.15,0 -45.79,-19.45 -47.86,-44.2l95.72 0z"/>
  <path class="fil24" d="M345.36 215.79c-1.44,0.99 -3.41,0.61 -4.4,-0.84 -0.99,-1.45 -0.61,-3.43 0.83,-4.42 1.44,-0.99 3.41,-0.62 4.4,0.83 0.98,1.45 0.61,3.44 -0.83,4.43zm-21.49 -31.65c-1.44,0.99 -3.41,0.61 -4.4,-0.84 -0.98,-1.45 -0.61,-3.43 0.83,-4.42 1.45,-0.99 3.41,-0.62 4.4,0.83 0.99,1.45 0.61,3.44 -0.83,4.43zm37.75 -25.92c-1.45,0.99 -3.42,0.62 -4.4,-0.83 -0.99,-1.46 -0.62,-3.44 0.83,-4.43 1.44,-0.99 3.41,-0.62 4.4,0.84 0.98,1.45 0.61,3.43 -0.83,4.42zm-25.17 17.28c-1.44,0.99 -3.41,0.62 -4.4,-0.84 -0.98,-1.45 -0.61,-3.43 0.83,-4.42 1.45,-0.99 3.42,-0.62 4.4,0.83 0.99,1.46 0.62,3.44 -0.83,4.43zm12.58 -8.64c-1.44,0.99 -3.41,0.62 -4.39,-0.83 -0.99,-1.46 -0.62,-3.44 0.83,-4.43 1.44,-0.99 3.41,-0.62 4.39,0.84 0.99,1.45 0.62,3.43 -0.83,4.42zm-17.95 27.9c-1.44,0.99 -3.41,0.61 -4.4,-0.84 -0.98,-1.45 -0.61,-3.43 0.83,-4.42 1.44,-0.99 3.41,-0.62 4.4,0.83 0.99,1.46 0.61,3.44 -0.83,4.43zm37.75 -25.92c-1.45,0.99 -3.42,0.62 -4.4,-0.83 -0.99,-1.46 -0.62,-3.44 0.83,-4.43 1.44,-0.99 3.41,-0.62 4.4,0.84 0.98,1.45 0.61,3.43 -0.83,4.42zm-25.17 17.28c-1.44,0.99 -3.41,0.62 -4.4,-0.84 -0.98,-1.45 -0.61,-3.43 0.83,-4.42 1.45,-0.99 3.42,-0.62 4.4,0.83 0.99,1.46 0.62,3.44 -0.83,4.43zm12.59 -8.64c-1.45,0.99 -3.42,0.62 -4.4,-0.84 -0.99,-1.45 -0.62,-3.43 0.83,-4.42 1.44,-0.99 3.41,-0.62 4.39,0.84 0.99,1.45 0.62,3.43 -0.82,4.42zm-17.96 27.9c-1.44,0.99 -3.41,0.61 -4.4,-0.84 -0.98,-1.45 -0.61,-3.43 0.83,-4.42 1.45,-0.99 3.41,-0.62 4.4,0.83 0.99,1.46 0.61,3.44 -0.83,4.43zm37.75 -25.92c-1.45,0.99 -3.42,0.62 -4.4,-0.83 -0.99,-1.46 -0.62,-3.44 0.83,-4.43 1.44,-0.99 3.41,-0.62 4.4,0.84 0.98,1.45 0.61,3.43 -0.83,4.42zm-25.17 17.28c-1.44,0.99 -3.41,0.62 -4.39,-0.84 -0.99,-1.45 -0.62,-3.43 0.82,-4.42 1.45,-0.99 3.42,-0.62 4.4,0.83 0.99,1.46 0.62,3.44 -0.83,4.43zm12.59 -8.64c-1.45,0.99 -3.42,0.62 -4.4,-0.84 -0.99,-1.45 -0.62,-3.43 0.83,-4.42 1.44,-0.99 3.41,-0.62 4.4,0.84 0.98,1.45 0.61,3.43 -0.83,4.42zm19.65 1.77c-1.45,0.99 -3.42,0.62 -4.4,-0.83 -0.99,-1.46 -0.62,-3.44 0.83,-4.43 1.44,-0.99 3.41,-0.62 4.4,0.84 0.98,1.45 0.61,3.43 -0.83,4.42zm-25.17 17.28c-1.44,0.99 -3.41,0.62 -4.4,-0.84 -0.98,-1.45 -0.61,-3.43 0.83,-4.42 1.45,-0.99 3.41,-0.62 4.4,0.83 0.99,1.46 0.61,3.44 -0.83,4.43zm12.58 -8.64c-1.44,0.99 -3.41,0.62 -4.39,-0.83 -0.99,-1.46 -0.62,-3.44 0.82,-4.43 1.45,-0.99 3.42,-0.62 4.4,0.84 0.99,1.45 0.62,3.43 -0.83,4.42z"/>
  <path class="fil25" d="M0 197.61c0.92,-0.6 1.84,-1.18 2.78,-1.73l-2.78 2.79 0 -1.06zm14.39 -7.53c2.63,-1.07 5.31,-2 8,-2.81l-22.39 22.52 0 -5.23 14.39 -14.48zm15.77 -4.72c2.05,-0.41 4.13,-0.75 6.2,-1l-36.36 36.56 0 -5.24 30.16 -30.32zm12.61 -1.56c1.77,-0.09 3.54,-0.12 5.31,-0.1l-48.08 48.35 0 -5.24 42.77 -43.01zm10.92 0.15c1.58,0.12 3.15,0.28 4.72,0.49l-58.41 58.73 0 -5.23 53.69 -53.99zm9.77 1.3c1.43,0.27 2.86,0.58 4.28,0.93l-67.74 68.12 0 -5.24 63.46 -63.81zm8.88 2.2c1.31,0.4 2.62,0.83 3.92,1.29l-76.26 76.69 0 -5.24 72.34 -72.74zm8.14 2.93c1.22,0.51 2.42,1.05 3.61,1.61l-84.09 84.57 0 -5.24 80.48 -80.94zm7.51 3.58c1.12,0.6 2.24,1.22 3.34,1.88l-91.33 91.84 0 -5.23 87.99 -88.49zm6.94 4.15c1.04,0.69 2.07,1.41 3.08,2.14l-98.01 98.56 0 -5.24 94.93 -95.46zm6.4 4.69c0.96,0.77 1.9,1.57 2.84,2.38l-104.17 104.76 0 -5.24 101.33 -101.9zm5.9 5.2c0.44,0.43 0.88,0.85 1.31,1.29 0.44,0.44 0.86,0.88 1.29,1.33l-109.83 110.44 0 -5.23 107.23 -107.83zm5.4 5.69c0.81,0.94 1.6,1.89 2.37,2.86l-115 115.64 0 -5.24 112.63 -113.26zm4.9 6.2c0.74,1.02 1.45,2.05 2.14,3.09l-119.67 120.34 0 -5.24 117.53 -118.19zm4.39 6.71c0.65,1.11 1.27,2.23 1.87,3.36l-117.62 118.28c-1.12,-0.6 -2.23,-1.23 -3.34,-1.88l119.09 -119.76zm3.83 7.28c0.56,1.2 1.09,2.41 1.6,3.63l-113.67 114.3c-1.21,-0.5 -2.42,-1.04 -3.61,-1.6l115.68 -116.33zm3.23 7.88c0.46,1.3 0.89,2.62 1.29,3.94l-108.44 109.05c-1.32,-0.4 -2.62,-0.83 -3.92,-1.3l111.07 -111.69zm2.54 8.57c0.35,1.42 0.66,2.86 0.93,4.3l-101.74 102.32c-1.44,-0.28 -2.86,-0.59 -4.28,-0.94l105.09 -105.68zm1.74 9.38c0.2,1.58 0.37,3.16 0.49,4.74l-93.27 93.8c-1.58,-0.12 -3.16,-0.29 -4.72,-0.49l97.5 -98.05zm0.73 10.39c0.02,1.78 -0.01,3.56 -0.1,5.33l-82.5 82.97c-1.76,0.08 -3.53,0.11 -5.3,0.09l87.9 -88.39zm-0.65 11.78c-0.26,2.09 -0.59,4.17 -1,6.24l-68.33 68.72c-2.06,0.41 -4.13,0.74 -6.21,1l75.54 -75.96zm-2.9 14.05c-0.8,2.71 -1.73,5.4 -2.8,8.04l-47.87 48.14c-2.63,1.07 -5.3,2.01 -8,2.81l58.67 -58.99zm-8.56 19.72c-3.63,6.16 -8.07,11.96 -13.34,17.25 -5.26,5.3 -11.03,9.77 -17.15,13.42l30.49 -30.67z"/>
  <path class="fil26" d="M1920 265.48c-24.56,12.81 -52.45,20.06 -82.03,20.06 -98.5,0 -178.35,-80.29 -178.35,-179.34 0,-39.75 12.87,-76.47 34.63,-106.2l225.75 0 0 265.48z"/>
  <polygon class="fil27" points="1806.95,241.61 1796.37,281.34 1785.79,321.06 1756.87,291.98 1727.96,262.9 1767.45,252.26 "/>
  <path class="fil27" d="M1721.1 213.47l-40.9 0 -40.89 0 20.45 -35.62 20.44 -35.61 20.45 35.61 20.45 35.62zm-18.44 -11.47l-22.46 0 -22.45 0 11.23 -19.55 11.22 -19.56 11.23 19.56 11.23 19.55z"/>
  <polygon class="fil27" points="1050,911.29 1039.31,951.26 1028.62,991.24 999.42,961.97 970.22,932.71 1010.11,922 "/>
  <path class="fil28" d="M1400.58 848.73c3.71,5.45 2.31,12.88 -3.13,16.6 -5.43,3.72 -12.85,2.32 -16.56,-3.13 -3.72,-5.45 -2.32,-12.88 3.12,-16.6 5.44,-3.73 12.85,-2.32 16.57,3.13zm-118.55 81.11c3.72,5.45 2.32,12.89 -3.12,16.61 -5.44,3.72 -12.86,2.32 -16.57,-3.13 -3.71,-5.45 -2.31,-12.89 3.12,-16.61 5.44,-3.72 12.86,-2.32 16.57,3.13zm-97.07 -142.49c3.71,5.45 2.32,12.89 -3.12,16.61 -5.44,3.72 -12.86,2.32 -16.57,-3.13 -3.71,-5.45 -2.31,-12.89 3.12,-16.61 5.44,-3.72 12.86,-2.32 16.57,3.13zm64.71 95c3.72,5.45 2.32,12.88 -3.12,16.6 -5.44,3.72 -12.85,2.32 -16.57,-3.13 -3.71,-5.45 -2.31,-12.88 3.13,-16.61 5.44,-3.72 12.85,-2.31 16.56,3.14zm-32.35 -47.5c3.71,5.45 2.31,12.88 -3.13,16.6 -5.43,3.72 -12.85,2.32 -16.56,-3.13 -3.72,-5.45 -2.32,-12.88 3.12,-16.6 5.44,-3.72 12.86,-2.32 16.57,3.13zm104.49 67.77c3.71,5.45 2.31,12.89 -3.12,16.61 -5.44,3.72 -12.86,2.32 -16.57,-3.13 -3.71,-5.45 -2.32,-12.89 3.12,-16.61 5.44,-3.72 12.86,-2.32 16.57,3.13zm-97.07 -142.49c3.71,5.45 2.31,12.89 -3.12,16.61 -5.44,3.72 -12.86,2.32 -16.57,-3.13 -3.72,-5.45 -2.32,-12.89 3.12,-16.61 5.44,-3.72 12.86,-2.32 16.57,3.13zm64.71 95c3.72,5.45 2.32,12.88 -3.12,16.6 -5.44,3.72 -12.86,2.32 -16.57,-3.13 -3.71,-5.45 -2.31,-12.88 3.12,-16.6 5.44,-3.72 12.86,-2.32 16.57,3.13zm-32.35 -47.5c3.71,5.45 2.31,12.88 -3.13,16.61 -5.44,3.72 -12.85,2.31 -16.57,-3.14 -3.71,-5.44 -2.31,-12.88 3.13,-16.6 5.44,-3.72 12.85,-2.32 16.57,3.13zm104.49 67.78c3.71,5.45 2.31,12.88 -3.13,16.6 -5.43,3.72 -12.85,2.32 -16.56,-3.13 -3.72,-5.45 -2.32,-12.88 3.12,-16.61 5.44,-3.72 12.85,-2.31 16.57,3.14zm-97.07 -142.49c3.71,5.44 2.31,12.88 -3.13,16.6 -5.44,3.72 -12.85,2.32 -16.57,-3.13 -3.71,-5.45 -2.31,-12.88 3.13,-16.6 5.44,-3.73 12.85,-2.32 16.57,3.13zm64.71 94.99c3.71,5.45 2.31,12.88 -3.12,16.6 -5.44,3.72 -12.86,2.32 -16.57,-3.13 -3.71,-5.45 -2.32,-12.88 3.12,-16.6 5.44,-3.72 12.86,-2.32 16.57,3.13zm-32.36 -47.5c3.72,5.45 2.32,12.89 -3.12,16.61 -5.44,3.72 -12.86,2.32 -16.57,-3.13 -3.71,-5.45 -2.31,-12.89 3.13,-16.61 5.43,-3.72 12.85,-2.32 16.56,3.13zm6.64 -74.17c3.71,5.45 2.31,12.88 -3.13,16.6 -5.43,3.72 -12.85,2.32 -16.57,-3.13 -3.71,-5.45 -2.31,-12.88 3.13,-16.6 5.44,-3.73 12.85,-2.32 16.57,3.13zm64.71 94.99c3.71,5.45 2.31,12.88 -3.12,16.6 -5.44,3.72 -12.86,2.32 -16.57,-3.13 -3.71,-5.45 -2.32,-12.88 3.12,-16.6 5.44,-3.72 12.86,-2.32 16.57,3.13zm-32.36 -47.5c3.72,5.45 2.32,12.89 -3.12,16.61 -5.44,3.72 -12.86,2.32 -16.57,-3.13 -3.71,-5.45 -2.31,-12.89 3.12,-16.61 5.44,-3.72 12.86,-2.32 16.57,3.13z"/>
  <path class="fil15" d="M417.69 566.08c-1.89,-9.62 3.14,-19.26 12.1,-23.21 8.96,-3.94 19.44,-1.12 25.23,6.78 5.79,7.9 5.33,18.77 -1.1,26.16 8.26,-7.48 9.78,-19.91 3.55,-29.16 -6.23,-9.24 -18.3,-12.48 -28.31,-7.6 -10.01,4.89 -14.9,16.42 -11.47,27.03z"/>
  <path class="fil29" d="M657.38 543.26c1.17,-4.65 1.25,-10.09 0.08,-15.11 -0.05,-0.19 -0.09,-0.37 -0.14,-0.55l-0.29 -0.97c-0.88,-2.68 -2.41,-5.23 -4.47,-7.48 -3.86,-4.19 -8.78,-5.71 -13.54,-7.18 -3.55,-1.1 -6.91,-2.14 -9.68,-4.23l-0.5 -0.37c-1.64,-1.22 -3.49,-2.61 -4.15,-4.04 -0.66,-1.46 -2.35,-2.12 -3.82,-1.58 -1.5,0.56 -2.3,2.17 -1.84,3.71l15.49 51.9c-2.88,-0.75 -6.15,-0.76 -9.43,0.22 -8.01,2.4 -12.97,9.58 -11.05,16.01 1.91,6.42 9.99,9.7 18,7.29 8.01,-2.4 12.97,-9.58 11.06,-16l-10.14 -33.95c4.87,0.36 13.28,2.48 18.21,11.83 -0.2,0.65 -0.37,1.34 -0.64,1.93 -0.71,1.52 -0.04,3.33 1.48,4.03 1.52,0.71 3.32,0.03 4.02,-1.49 0.52,-1.12 0.9,-2.37 1.24,-3.65 0.05,-0.1 0.08,-0.21 0.11,-0.32z"/>
  <path class="fil30" d="M235.02 406.28c2.23,-1.33 4.34,-3.39 5.81,-5.77 0.05,-0.08 0.11,-0.17 0.16,-0.26l0.26 -0.48c0.68,-1.37 1.08,-2.93 1.14,-4.59 0.13,-3.08 -1.18,-5.56 -2.44,-7.95 -0.94,-1.79 -1.83,-3.48 -2.09,-5.34l-0.05 -0.34c-0.16,-1.1 -0.34,-2.34 -0.05,-3.14 0.31,-0.81 -0.09,-1.72 -0.86,-2.08 -0.78,-0.36 -1.71,-0.04 -2.12,0.72l-13.92 25.85c-0.81,-1.39 -2.06,-2.66 -3.7,-3.54 -3.99,-2.16 -8.64,-1.31 -10.36,1.89 -1.72,3.2 0.13,7.56 4.12,9.71 3.98,2.16 8.63,1.32 10.36,-1.88l9.1 -16.91c1.72,2.01 4.14,6.05 2.45,11.53 -0.33,0.17 -0.66,0.37 -0.98,0.49 -0.86,0.32 -1.29,1.26 -0.97,2.12 0.3,0.85 1.25,1.28 2.11,0.97 0.62,-0.23 1.24,-0.56 1.87,-0.92 0.05,-0.02 0.11,-0.05 0.16,-0.08z"/>
  <path class="fil31" d="M0.67 872.94c787.85,228.42 1199.25,-681.18 1919.33,-249.81 0,51.2 0,68.16 0,68.16 -679.92,-433.96 -1039.94,388.33 -1919.33,181.65z"/>
  <path class="fil32" d="M1573.09 639.67c9.46,-9.48 19.82,-17.48 30.82,-24.02l-54.78 54.9c6.52,-11.02 14.51,-21.41 23.96,-30.88zm51.69 -34.39c4.72,-1.92 9.51,-3.59 14.37,-5.03l-105.39 105.62c1.43,-4.86 3.11,-9.67 5.02,-14.4l86 -86.19zm28.31 -8.46c3.69,-0.73 7.41,-1.33 11.14,-1.79l-135.68 135.98c0.46,-3.74 1.06,-7.47 1.79,-11.17l122.75 -123.02zm22.66 -2.79c3.17,-0.15 6.35,-0.21 9.53,-0.17l-157.9 158.24c-0.03,-3.18 0.02,-6.37 0.18,-9.55l148.19 -148.52zm19.61 0.26c2.83,0.22 5.66,0.52 8.48,0.88l-175.14 175.53c-0.37,-2.82 -0.67,-5.65 -0.88,-8.49l167.54 -167.92zm17.55 2.34c2.57,0.49 5.14,1.05 7.69,1.67l-188.79 189.2c-0.62,-2.56 -1.17,-5.13 -1.66,-7.71l182.76 -183.16zm15.94 3.93c2.36,0.72 4.71,1.49 7.05,2.32l-199.51 199.95c-0.83,-2.34 -1.6,-4.69 -2.32,-7.06l194.78 -195.21zm14.64 5.26c2.18,0.91 4.34,1.86 6.48,2.87l-207.78 208.25c-1.01,-2.15 -1.97,-4.32 -2.87,-6.5l204.17 -204.62zm13.49 6.4c2.01,1.07 4.01,2.19 5.99,3.37l-213.91 214.38c-1.17,-1.98 -2.28,-3.99 -3.36,-6.01l211.28 -211.74zm12.46 7.43c1.86,1.23 3.7,2.52 5.52,3.84l-218.01 218.5c-1.32,-1.83 -2.6,-3.67 -3.84,-5.54l216.33 -216.8zm11.49 8.4c1.72,1.38 3.42,2.8 5.1,4.27l-220.27 220.75c-1.46,-1.67 -2.88,-3.38 -4.26,-5.1l219.43 -219.92zm10.59 9.3c0.8,0.77 1.59,1.53 2.37,2.32 0.78,0.78 1.55,1.57 2.31,2.37l-220.74 221.23c-0.8,-0.76 -1.59,-1.53 -2.37,-2.31 -0.78,-0.79 -1.55,-1.58 -2.31,-2.38l220.74 -221.23zm9.7 10.2c1.47,1.68 2.88,3.38 4.26,5.1l-219.43 219.92c-1.72,-1.38 -3.42,-2.8 -5.1,-4.26l220.27 -220.76zm8.81 11.09c1.33,1.82 2.61,3.66 3.84,5.53l-216.33 216.81c-1.86,-1.24 -3.7,-2.52 -5.52,-3.84l218.01 -218.5zm7.89 12.02c1.17,1.98 2.28,3.98 3.36,6l-211.28 211.75c-2.01,-1.08 -4.01,-2.2 -5.99,-3.37l213.91 -214.38zm6.87 13.02c1.01,2.15 1.97,4.32 2.87,6.5l-204.17 204.62c-2.18,-0.9 -4.34,-1.86 -6.48,-2.87l207.78 -208.25zm5.8 14.11c0.83,2.34 1.6,4.69 2.32,7.06l-194.78 195.21c-2.36,-0.72 -4.71,-1.49 -7.04,-2.32l199.5 -199.95zm4.58 15.33c0.62,2.56 1.17,5.13 1.66,7.71l-182.75 183.16c-2.58,-0.49 -5.14,-1.04 -7.69,-1.67l188.78 -189.2zm3.11 16.8c0.37,2.83 0.67,5.66 0.88,8.5l-167.54 167.91c-2.83,-0.22 -5.66,-0.51 -8.48,-0.88l175.14 -175.53zm1.32 18.6c0.03,3.19 -0.02,6.37 -0.17,9.55l-148.2 148.52c-3.17,0.16 -6.35,0.21 -9.52,0.17l157.89 -158.24zm-1.17 21.09c-0.46,3.74 -1.06,7.47 -1.79,11.17l-122.74 123.02c-3.7,0.73 -7.42,1.33 -11.15,1.79l135.68 -135.98zm-5.21 25.15c-1.43,4.86 -3.11,9.67 -5.02,14.4l-85.99 86.18c-4.72,1.92 -9.52,3.59 -14.37,5.03l105.38 -105.61zm-15.37 35.32c-6.52,11.01 -14.51,21.4 -23.96,30.88 -9.45,9.47 -19.82,17.47 -30.81,24.01l54.77 -54.89z"/>
  <path class="fil1" d="M1688.25 953.87l-35.76 -20.69 -35.76 -20.69 35.76 -20.7 35.76 -20.69 0 41.39 0 41.38zm-10.37 -19.32l-19.63 -11.36 -19.64 -11.37 19.63 -11.36 19.64 -11.36 0 22.73 0 22.72z"/>
 </g>
</svg>
